<?xml version="1.0" encoding="utf-8"?>
<!-- Generator: Adobe Illustrator 16.0.0, SVG Export Plug-In . SVG Version: 6.00 Build 0)  -->
<!DOCTYPE svg PUBLIC "-//W3C//DTD SVG 1.1//EN" "http://www.w3.org/Graphics/SVG/1.1/DTD/svg11.dtd">
<svg version="1.1" id="Layer_1" xmlns="http://www.w3.org/2000/svg" xmlns:xlink="http://www.w3.org/1999/xlink" x="0px" y="0px"
	 width="595.343px" height="225.724px" viewBox="-0.06 308.069 595.343 225.724"
	 enable-background="new -0.06 308.069 595.343 225.724" xml:space="preserve">
<title>open interop - light</title>
<path fill="#FFFFFF" d="M82.765,349.462c-0.02,22.815-18.531,41.295-41.347,41.276c-0.03,0-0.06,0-0.089,0
	c-22.767,0.092-41.297-18.29-41.389-41.056c-0.045-11.014,4.32-21.588,12.121-29.364c15.991-16.164,42.058-16.304,58.222-0.313
	c0.104,0.104,0.209,0.208,0.312,0.313C78.501,327.937,82.905,338.484,82.765,349.462z M69.461,349.462
	c-0.221-15.418-12.713-27.839-28.132-27.973c-15.429-0.096-28.015,12.334-28.11,27.763c-0.047,7.569,2.979,14.832,8.386,20.129
	c10.865,10.913,28.521,10.952,39.434,0.086c0.028-0.029,0.058-0.058,0.086-0.086C66.552,364.189,69.573,356.972,69.461,349.462z"/>
<path fill="#FFFFFF" d="M182.274,349.462c0.143,10.863-4.089,21.327-11.742,29.037c-14.808,15.66-39.506,16.351-55.166,1.544
	c-0.866-0.819-1.694-1.678-2.482-2.573v38.686H99.509v-66.694c-0.074-22.786,18.337-41.318,41.123-41.393
	c11.053-0.036,21.657,4.364,29.438,12.214C178.004,327.899,182.423,338.465,182.274,349.462z M168.9,349.462
	c-0.201-15.385-12.624-27.808-28.009-28.008c-15.468,0-28.008,12.54-28.008,28.008c0,15.468,12.54,28.008,28.008,28.008
	C156.32,377.373,168.802,364.89,168.9,349.462L168.9,349.462z"/>
<path fill="#FFFFFF" d="M266.138,378.835c-7.655,7.755-18.142,12.054-29.037,11.902c-11.007,0.163-21.613-4.129-29.409-11.902
	c-7.904-7.624-12.27-18.199-12.044-29.179c-0.078-22.864,18.394-41.463,41.258-41.542c0.012,0,0.023,0,0.036,0
	c8.019-0.012,15.864,2.332,22.562,6.74c6.819,4.301,12.17,10.574,15.343,17.986l-57.115,37.09
	c5.185,4.979,12.129,7.702,19.316,7.574c7.382,0.17,14.499-2.749,19.636-8.053c5.278-5.19,8.218-12.304,8.142-19.707h13.463
	C278.383,360.695,273.992,371.207,266.138,378.835z M236.87,321.489c-7.472-0.136-14.655,2.877-19.795,8.301
	c-5.295,5.243-8.228,12.416-8.124,19.866c0.042,3.09,0.568,6.155,1.561,9.082l45.692-29.658
	C251.016,324.095,244.065,321.366,236.87,321.489L236.87,321.489z"/>
<path fill="#FFFFFF" d="M351.172,389.549v-46.686c0-11.795-9.562-21.356-21.355-21.356c-11.795,0-21.356,9.562-21.356,21.356v46.686
	h-13.374v-46.686c0.433-19.157,16.313-34.335,35.47-33.902c18.547,0.419,33.482,15.355,33.902,33.902v46.686H351.172z"/>
<path fill="#FFFFFF" d="M99.385,507.187v-80.104h13.303v80.104H99.385z"/>
<path fill="#FFFFFF" d="M192.1,507.187v-46.704c0-11.795-9.562-21.356-21.355-21.356c-11.795,0-21.356,9.562-21.356,21.356v46.704
	h-13.375v-46.704c-0.262-18.915,14.858-34.461,33.773-34.724c9.466-0.131,18.563,3.661,25.134,10.477
	c6.688,6.291,10.482,15.065,10.483,24.247v46.704H192.1z"/>
<path fill="#FFFFFF" d="M245.509,440.457v66.729h-13.375v-66.729h-13.303v-13.375h13.303v-26.606h13.375v26.606h13.374v13.375
	H245.509z"/>
<path fill="#FFFFFF" d="M339.323,496.473c-7.648,7.751-18.13,12.044-29.019,11.884c-11.005,0.168-21.61-4.117-29.409-11.884
	c-7.936-7.609-12.333-18.187-12.133-29.179c-0.203-11.025,4.162-21.645,12.062-29.338c7.629-7.993,18.256-12.425,29.303-12.222
	c8.06-0.042,15.951,2.297,22.687,6.723c6.854,4.327,12.22,10.646,15.379,18.11l-57.115,37.071
	c5.183,4.983,12.127,7.713,19.316,7.592c7.379,0.155,14.49-2.761,19.636-8.053c5.28-5.195,8.22-12.316,8.142-19.725h13.463
	C351.669,478.402,347.221,488.889,339.323,496.473z M310.074,439.126c-7.472-0.135-14.655,2.878-19.796,8.302
	c-5.305,5.236-8.239,12.413-8.124,19.866c0.044,3.09,0.57,6.154,1.562,9.082l45.675-29.658c-5.168-4.974-12.092-7.702-19.264-7.592
	H310.074z"/>
<path fill="#FFFFFF" d="M387.961,445.388c-4.075,3.954-6.335,9.417-6.244,15.095v46.704h-13.392v-46.704
	c0.572-18.941,15.788-34.166,34.73-34.748v13.374C397.373,439.029,391.91,441.302,387.961,445.388z"/>
<path fill="#FFFFFF" d="M495.771,467.135c0.09,22.942-18.438,41.613-41.38,41.702c-22.942,0.09-41.614-18.437-41.703-41.38
	c-0.089-22.942,18.438-41.613,41.38-41.703c11.091-0.043,21.738,4.351,29.57,12.202
	C491.539,445.589,495.931,456.149,495.771,467.135z M482.468,467.135c-0.01-15.488-12.573-28.036-28.061-28.026
	c-15.475,0.009-28.018,12.552-28.026,28.026c0.009,15.487,12.572,28.035,28.061,28.025
	C469.916,495.151,482.458,482.609,482.468,467.135z"/>
<path fill="#FFFFFF" d="M595.28,467.135c0.143,10.857-4.089,21.315-11.742,29.019c-14.803,15.664-39.5,16.363-55.165,1.561
	c-0.866-0.819-1.694-1.677-2.482-2.571v38.65h-13.374v-66.658c0-22.855,18.527-41.383,41.382-41.383S595.28,444.279,595.28,467.135z
	 M581.906,467.135c-0.2-15.364-12.591-27.779-27.954-28.009c-15.43,0.04-27.905,12.579-27.866,28.009
	c0.039,15.429,12.579,27.904,28.008,27.865c15.374-0.039,27.827-12.492,27.866-27.865H581.906z"/>
</svg>
